<mxfile host="app.diagrams.net" modified="2023-08-30T05:31:12.493Z" agent="Mozilla/5.0 (Windows NT 10.0; Win64; x64) AppleWebKit/537.36 (KHTML, like Gecko) Chrome/116.0.0.0 Safari/537.36 Edg/116.0.1938.54" etag="xJBziYPZQ4R__Hobllms" version="21.6.9" type="github">
  <diagram name="Page-1" id="ge3-hOaAxcKTg2Dx_Vvu">
    <mxGraphModel dx="1042" dy="569" grid="1" gridSize="10" guides="1" tooltips="1" connect="1" arrows="1" fold="1" page="1" pageScale="1" pageWidth="850" pageHeight="1100" math="0" shadow="0">
      <root>
        <mxCell id="0" />
        <mxCell id="1" parent="0" />
        <mxCell id="wdeAGtdzyXhV3xt52uQ4-5" style="edgeStyle=orthogonalEdgeStyle;rounded=0;orthogonalLoop=1;jettySize=auto;html=1;exitX=0.5;exitY=1;exitDx=0;exitDy=0;" parent="1" edge="1">
          <mxGeometry relative="1" as="geometry">
            <mxPoint x="75" y="380" as="sourcePoint" />
            <mxPoint x="75" y="380" as="targetPoint" />
          </mxGeometry>
        </mxCell>
        <mxCell id="Frj3U7urO7_gcM3COunR-47" value="http" style="edgeStyle=orthogonalEdgeStyle;rounded=0;sketch=1;hachureGap=4;jiggle=2;curveFitting=1;orthogonalLoop=1;jettySize=auto;html=1;fontFamily=Architects Daughter;fontSource=https%3A%2F%2Ffonts.googleapis.com%2Fcss%3Ffamily%3DArchitects%2BDaughter;fontSize=16;" parent="1" edge="1">
          <mxGeometry relative="1" as="geometry">
            <mxPoint x="410" y="255" as="sourcePoint" />
            <mxPoint x="532.7" y="350" as="targetPoint" />
          </mxGeometry>
        </mxCell>
        <mxCell id="Frj3U7urO7_gcM3COunR-55" value="request" style="edgeStyle=orthogonalEdgeStyle;rounded=0;sketch=1;hachureGap=4;jiggle=2;curveFitting=1;orthogonalLoop=1;jettySize=auto;html=1;fontFamily=Architects Daughter;fontSource=https%3A%2F%2Ffonts.googleapis.com%2Fcss%3Ffamily%3DArchitects%2BDaughter;fontSize=16;entryX=-0.016;entryY=0.204;entryDx=0;entryDy=0;entryPerimeter=0;" parent="1" target="Frj3U7urO7_gcM3COunR-53" edge="1">
          <mxGeometry relative="1" as="geometry">
            <mxPoint x="655" y="260" as="targetPoint" />
            <mxPoint x="615.3800000000001" y="371.5" as="sourcePoint" />
          </mxGeometry>
        </mxCell>
        <mxCell id="Frj3U7urO7_gcM3COunR-58" value="response&amp;nbsp;" style="edgeStyle=orthogonalEdgeStyle;rounded=0;sketch=1;hachureGap=4;jiggle=2;curveFitting=1;orthogonalLoop=1;jettySize=auto;html=1;fontFamily=Architects Daughter;fontSource=https%3A%2F%2Ffonts.googleapis.com%2Fcss%3Ffamily%3DArchitects%2BDaughter;fontSize=16;" parent="1" edge="1">
          <mxGeometry x="1" y="-42" relative="1" as="geometry">
            <mxPoint x="714.62" y="190" as="sourcePoint" />
            <mxPoint x="610" y="340" as="targetPoint" />
            <mxPoint x="-5" y="1" as="offset" />
          </mxGeometry>
        </mxCell>
        <mxCell id="Frj3U7urO7_gcM3COunR-53" value="" style="swimlane;startSize=0;sketch=1;hachureGap=4;jiggle=2;curveFitting=1;fontFamily=Architects Daughter;fontSource=https%3A%2F%2Ffonts.googleapis.com%2Fcss%3Ffamily%3DArchitects%2BDaughter;fontSize=20;" parent="1" vertex="1">
          <mxGeometry x="700" y="170" width="200" height="200" as="geometry" />
        </mxCell>
        <mxCell id="Frj3U7urO7_gcM3COunR-56" value="mongoDB" style="sketch=0;pointerEvents=1;shadow=0;dashed=0;html=1;strokeColor=none;fillColor=#434445;aspect=fixed;labelPosition=center;verticalLabelPosition=bottom;verticalAlign=top;align=center;outlineConnect=0;shape=mxgraph.vvd.storage;hachureGap=4;jiggle=2;curveFitting=1;fontFamily=Architects Daughter;fontSource=https%3A%2F%2Ffonts.googleapis.com%2Fcss%3Ffamily%3DArchitects%2BDaughter;fontSize=20;" parent="Frj3U7urO7_gcM3COunR-53" vertex="1">
          <mxGeometry x="130" y="20" width="42.5" height="56.67" as="geometry" />
        </mxCell>
      </root>
    </mxGraphModel>
  </diagram>
</mxfile>
